<svg width="50" height="50" viewBox="0 0 50 50" fill="none" xmlns="http://www.w3.org/2000/svg">
<path d="M25 50C38.8071 50 50 38.8071 50 25C50 11.1929 38.8071 0 25 0C11.1929 0 0 11.1929 0 25C0 38.8071 11.1929 50 25 50Z" fill="url(#paint0_linear)"/>
<path d="M11.6277 27.3664C11.0156 27.9246 10.9718 28.8733 11.5299 29.4855C12.0881 30.0977 13.0368 30.1414 13.649 29.5833L11.6277 27.3664ZM18.1034 23.4921L19.164 22.4314C18.5973 21.8646 17.6851 21.8436 17.0928 22.3836L18.1034 23.4921ZM21.8003 27.189L20.7396 28.2496C21.0261 28.5361 21.4162 28.6945 21.8213 28.6888C22.2264 28.6831 22.612 28.5139 22.8903 28.2195L21.8003 27.189ZM30.1586 18.3485L31.5241 17.7278C31.3174 17.2732 30.8981 16.9512 30.4055 16.869C29.9129 16.7868 29.4117 16.9551 29.0686 17.318L30.1586 18.3485ZM31.7659 21.8847L30.4004 22.5054C30.6113 22.9694 31.0433 23.2945 31.5475 23.3687C32.0518 23.4429 32.5592 23.256 32.8948 22.8725L31.7659 21.8847ZM37.3954 17.7289C37.9409 17.1055 37.8777 16.1578 37.2543 15.6123C36.6308 15.0668 35.6832 15.1299 35.1376 15.7534L37.3954 17.7289ZM11.995 33.3885C11.2467 33.7438 10.928 34.6385 11.2833 35.3869C11.6387 36.1353 12.5334 36.4539 13.2817 36.0986L11.995 33.3885ZM18.1034 32.1488L19.2932 31.2354C18.8626 30.6745 18.0988 30.4905 17.46 30.7938L18.1034 32.1488ZM20.8359 35.708L19.6461 36.6214C19.8976 36.9491 20.2732 37.1585 20.6841 37.2003C21.0951 37.2421 21.5051 37.1125 21.8175 36.8422L20.8359 35.708ZM29.1941 28.4749L30.4804 27.7031C30.2525 27.3233 29.8683 27.0636 29.4309 26.9937C28.9935 26.9237 28.5475 27.0507 28.2126 27.3406L29.1941 28.4749ZM31.123 31.6896L29.8367 32.4613C30.0904 32.8842 30.5357 33.1553 31.0279 33.1866C31.52 33.2178 31.996 33.0052 32.3012 32.6179L31.123 31.6896ZM36.4803 27.3136C36.993 26.6629 36.8811 25.7197 36.2304 25.2071C35.5797 24.6944 34.6365 24.8063 34.1239 25.457L36.4803 27.3136ZM13.649 29.5833L19.114 24.6005L17.0928 22.3836L11.6277 27.3664L13.649 29.5833ZM17.0427 24.5527L20.7396 28.2496L22.861 26.1283L19.164 22.4314L17.0427 24.5527ZM22.8903 28.2195L31.2485 19.379L29.0686 17.318L20.7103 26.1585L22.8903 28.2195ZM28.793 18.9692L30.4004 22.5054L33.1315 21.264L31.5241 17.7278L28.793 18.9692ZM32.8948 22.8725L37.3954 17.7289L35.1376 15.7534L30.637 20.8969L32.8948 22.8725ZM13.2817 36.0986L18.7467 33.5038L17.46 30.7938L11.995 33.3885L13.2817 36.0986ZM16.9136 33.0623L19.6461 36.6214L22.0257 34.7945L19.2932 31.2354L16.9136 33.0623ZM21.8175 36.8422L30.1757 29.6091L28.2126 27.3406L19.8543 34.5737L21.8175 36.8422ZM27.9079 29.2466L29.8367 32.4613L32.4092 30.9178L30.4804 27.7031L27.9079 29.2466ZM32.3012 32.6179L36.4803 27.3136L34.1239 25.457L29.9447 30.7613L32.3012 32.6179Z" fill="white"/>
<path d="M12.8287 29.6053C13.7371 29.6053 14.4734 28.8689 14.4734 27.9605C14.4734 27.0522 13.7371 26.3158 12.8287 26.3158C11.9203 26.3158 11.184 27.0522 11.184 27.9605C11.184 28.8689 11.9203 29.6053 12.8287 29.6053Z" fill="white"/>
<path d="M12.8287 36.1843C13.7371 36.1843 14.4734 35.4479 14.4734 34.5395C14.4734 33.6312 13.7371 32.8948 12.8287 32.8948C11.9203 32.8948 11.184 33.6312 11.184 34.5395C11.184 35.4479 11.9203 36.1843 12.8287 36.1843Z" fill="white"/>
<path d="M35.855 27.6315C36.7634 27.6315 37.4997 26.8951 37.4997 25.9868C37.4997 25.0784 36.7634 24.342 35.855 24.342C34.9466 24.342 34.2103 25.0784 34.2103 25.9868C34.2103 26.8951 34.9466 27.6315 35.855 27.6315Z" fill="white"/>
<path d="M35.855 18.4211C36.7634 18.4211 37.4997 17.6847 37.4997 16.7763C37.4997 15.868 36.7634 15.1316 35.855 15.1316C34.9466 15.1316 34.2103 15.868 34.2103 16.7763C34.2103 17.6847 34.9466 18.4211 35.855 18.4211Z" fill="white"/>
<defs>
<linearGradient id="paint0_linear" x1="25" y1="0" x2="25" y2="50" gradientUnits="userSpaceOnUse">
<stop stop-color="#28B7B5" stop-opacity="0.7"/>
<stop offset="1" stop-color="#28B7B5"/>
</linearGradient>
</defs>
</svg>
