<svg width="50" height="50" viewBox="0 0 50 50" fill="none" xmlns="http://www.w3.org/2000/svg">
<path d="M25 50C38.8071 50 50 38.8071 50 25C50 11.1929 38.8071 0 25 0C11.1929 0 0 11.1929 0 25C0 38.8071 11.1929 50 25 50Z" fill="url(#paint0_linear)"/>
<path fill-rule="evenodd" clip-rule="evenodd" d="M23.2895 22.2876C26.0509 22.2876 28.2895 24.5262 28.2895 27.2876V37.1713C28.2895 38.0334 27.2718 38.4915 26.6265 37.9199L25.0471 36.5211C24.1327 35.7112 22.9535 35.264 21.732 35.264H12.8948C10.1334 35.264 7.89478 33.0255 7.89478 30.264V27.2876C7.89478 24.5262 10.1334 22.2876 12.8948 22.2876H23.2895ZM13.8158 30.2632C14.5425 30.2632 15.1316 29.6741 15.1316 28.9474C15.1316 28.2207 14.5425 27.6316 13.8158 27.6316C13.0891 27.6316 12.5 28.2207 12.5 28.9474C12.5 29.6741 13.0891 30.2632 13.8158 30.2632ZM19.7369 28.9474C19.7369 29.6741 19.1478 30.2632 18.4211 30.2632C17.6944 30.2632 17.1053 29.6741 17.1053 28.9474C17.1053 28.2207 17.6944 27.6316 18.4211 27.6316C19.1478 27.6316 19.7369 28.2207 19.7369 28.9474ZM23.0264 30.2632C23.753 30.2632 24.3421 29.6741 24.3421 28.9474C24.3421 28.2207 23.753 27.6316 23.0264 27.6316C22.2997 27.6316 21.7106 28.2207 21.7106 28.9474C21.7106 29.6741 22.2997 30.2632 23.0264 30.2632Z" fill="white"/>
<path fill-rule="evenodd" clip-rule="evenodd" d="M26.0527 11.842C23.2912 11.842 21.0527 14.0806 21.0527 16.842V20.8448H24.4552C26.9448 20.8448 29.0094 22.6643 29.3917 25.0461H37.0591C39.8206 25.0461 42.0591 22.8075 42.0591 20.0461V16.842C42.0591 14.0806 39.8206 11.842 37.0591 11.842H26.0527ZM23.6841 15.7894C23.6841 15.426 23.9787 15.1315 24.342 15.1315H36.842C37.2054 15.1315 37.4999 15.426 37.4999 15.7894C37.4999 16.1527 37.2054 16.4473 36.842 16.4473H24.342C23.9787 16.4473 23.6841 16.1527 23.6841 15.7894ZM24.3419 17.7631C23.9786 17.7631 23.684 18.0576 23.684 18.421C23.684 18.7843 23.9786 19.0788 24.3419 19.0788H30.263C30.6263 19.0788 30.9209 18.7843 30.9209 18.421C30.9209 18.0576 30.6263 17.7631 30.263 17.7631H24.3419Z" fill="white"/>
<defs>
<linearGradient id="paint0_linear" x1="25" y1="0" x2="25" y2="50" gradientUnits="userSpaceOnUse">
<stop stop-color="#28B7B5" stop-opacity="0.7"/>
<stop offset="1" stop-color="#28B7B5"/>
</linearGradient>
</defs>
</svg>
