<svg width="50" height="50" viewBox="0 0 50 50" fill="none" xmlns="http://www.w3.org/2000/svg">
<path d="M25 50C38.8071 50 50 38.8071 50 25C50 11.1929 38.8071 0 25 0C11.1929 0 0 11.1929 0 25C0 38.8071 11.1929 50 25 50Z" fill="url(#paint0_linear)"/>
<path d="M21.9329 32.7237C19.073 33.3676 17.7812 30.588 17.3914 28.5245C17.3475 28.2921 17.0557 28.2054 16.9093 28.3874L11.2453 35.4287C11.091 35.6206 11.25 35.908 11.4878 35.8669L15.2375 35.2195C15.3726 35.1962 15.502 35.2854 15.5333 35.4235L16.406 39.2658C16.4537 39.4756 16.7081 39.5454 16.8497 39.3874L22.303 33.3033C22.5 33.0836 22.2158 32.66 21.9329 32.7237Z" fill="white"/>
<path d="M28.0671 32.4629C30.7767 33.0371 31.4498 30.603 31.8445 28.6938C31.8748 28.5475 32.1124 28.5288 32.2337 28.6161C32.2785 28.6484 32.2591 28.6402 32.2985 28.6789L38.7547 35.0088C38.909 35.1894 38.75 35.4599 38.5122 35.4212L34.7625 34.8119C34.6274 34.7899 34.498 34.8739 34.4667 35.0039L33.594 38.6202C33.5463 38.8177 33.2919 38.8833 33.1503 38.7346L27.697 33.0084C27.5 32.8016 27.7842 32.403 28.0671 32.4629Z" fill="white"/>
<path fill-rule="evenodd" clip-rule="evenodd" d="M26.8932 12.9486C26.3102 10.5961 23.032 10.5961 22.4489 12.9486C22.099 14.3607 20.5813 15.1059 19.2803 14.5045C17.1129 13.5025 15.069 16.1158 16.5094 18.0474C17.374 19.2067 16.9991 20.8813 15.7268 21.5434C13.6071 22.6464 14.3366 25.9052 16.7158 25.9613C18.1438 25.9949 19.1941 27.3378 18.9085 28.7648C18.4327 31.1424 21.3862 32.5926 22.9126 30.731C23.8288 29.6136 25.5133 29.6136 26.4295 30.731C27.9559 32.5926 30.9094 31.1424 30.4336 28.7648C30.148 27.3378 31.1983 25.9949 32.6264 25.9613C35.0055 25.9052 35.735 22.6464 33.6153 21.5434C32.343 20.8813 31.9682 19.2067 32.8327 18.0474C34.2731 16.1158 32.2292 13.5025 30.0618 14.5045C28.7608 15.1059 27.2431 14.3607 26.8932 12.9486ZM24.3422 26.9737C27.2489 26.9737 29.6053 24.6173 29.6053 21.7105C29.6053 18.8038 27.2489 16.4474 24.3422 16.4474C21.4354 16.4474 19.079 18.8038 19.079 21.7105C19.079 24.6173 21.4354 26.9737 24.3422 26.9737ZM24.3422 25.5333C22.2309 25.5333 20.5194 23.8218 20.5194 21.7105C20.5194 19.5993 22.2309 17.8878 24.3422 17.8878C26.4534 17.8878 28.1649 19.5993 28.1649 21.7105C28.1649 23.8218 26.4534 25.5333 24.3422 25.5333Z" fill="white"/>
<defs>
<linearGradient id="paint0_linear" x1="25" y1="0" x2="25" y2="50" gradientUnits="userSpaceOnUse">
<stop stop-color="#28B7B5" stop-opacity="0.7"/>
<stop offset="1" stop-color="#28B7B5"/>
</linearGradient>
</defs>
</svg>
